<?xml version="1.0" encoding="UTF-8" standalone="no"?>
<svg width="156px" height="157px" viewBox="0 0 156 157" version="1.1" xmlns="http://www.w3.org/2000/svg" xmlns:xlink="http://www.w3.org/1999/xlink">
    <!-- Generator: Sketch 44 (41411) - http://www.bohemiancoding.com/sketch -->
    <title>Page 1</title>
    <desc>Created with Sketch.</desc>
    <defs>
        <polygon id="path-1" points="77.9960624 0.0078150289 0 0.0078150289 0 156 77.9960624 156 155.992125 156 155.992125 0.0078150289 77.9960624 0.0078150289"></polygon>
    </defs>
    <g id="Desktop" stroke="none" stroke-width="1" fill="none" fill-rule="evenodd">
        <g id="01" transform="translate(-807.000000, -282.000000)">
            <g id="Group-2" transform="translate(805.000000, 280.000000)">
                <g id="Page-1" transform="translate(2.000000, 2.000000)">
                    <g id="Group-3" transform="translate(0.000000, 0.292763)">
                        <mask id="mask-2" fill="white">
                            <use xlink:href="#path-1"></use>
                        </mask>
                        <g id="Clip-2"></g>
                        <path d="M77.9960324,0.0078150289 C121.072171,0.0078150289 155.992125,34.9277688 155.992125,78.0039075 C155.992125,121.080046 121.072171,156 77.9960324,156 C34.9198936,156 -6.01156069e-05,121.080046 -6.01156069e-05,78.0039075 C-6.01156069e-05,34.9277688 34.9198936,0.0078150289 77.9960324,0.0078150289" id="Fill-1" fill="#F1F1F1" mask="url(#mask-2)"></path>
                    </g>
                    <path d="M16.0107699,125.635276 C30.2635792,144.269612 52.7242728,156.292733 77.9962728,156.292733 C103.268273,156.292733 125.728966,144.269612 139.981776,125.635276 L16.0107699,125.635276 Z" id="Fill-4" fill="#D8D8D8"></path>
                    <path d="M77.4324486,121.085457 C61.1324023,121.085457 45.4852116,131.010844 38.4252347,145.550405 C49.6518243,152.367214 64.3317549,156.292763 78.4255584,156.292763 C91.874622,156.292763 105.089836,152.717988 115.971061,146.467468 C109.067986,131.42985 94.0730497,121.085457 77.4324486,121.085457" id="Fill-6" fill="#757575"></path>
                    <path d="M117.710506,80.085711 C117.710506,79.4983815 117.695778,78.9137572 117.668125,78.3318382 C117.669628,78.3240231 117.671131,78.3168092 117.672634,78.3092948 C115.843316,73.2505665 114.037743,67.1359075 109.658622,63.4159538 C109.653813,63.407237 109.649304,63.3985202 109.644495,63.3898035 C106.96394,61.0239538 103.231362,58.2874913 101.835177,54.0024509 C101.809928,54.0334104 101.783177,54.0637688 101.757628,54.0947283 C101.687894,54.1788902 101.617558,54.263052 101.546021,54.3469133 C101.502136,54.3980116 101.45735,54.4488092 101.412865,54.4996069 C101.342229,54.5804624 101.270691,54.6613179 101.197951,54.7415723 C101.150761,54.7941734 101.102368,54.8461734 101.053674,54.898474 C100.981235,54.9763237 100.909096,55.0541734 100.834553,55.131422 C100.783454,55.1849249 100.730853,55.2381272 100.678553,55.2913295 C100.60461,55.366474 100.530067,55.4416185 100.454321,55.5161618 C100.399015,55.5702659 100.343709,55.6237688 100.287501,55.6775723 C100.211454,55.7506127 100.134807,55.823052 100.056957,55.8954913 C99.9986451,55.9495954 99.9394312,56.0033988 99.8805179,56.0572023 C99.8017665,56.1284393 99.7227145,56.1990751 99.6424601,56.2694104 C99.5811422,56.3232139 99.5195237,56.3770173 99.4570035,56.4302197 C99.3755468,56.4993526 99.2937896,56.568185 99.2108301,56.6367168 C99.1465064,56.6899191 99.0818821,56.7428208 99.0166566,56.7957225 C98.9327954,56.863052 98.8477318,56.9297803 98.7617665,56.9965087 C98.6941364,57.0491098 98.6262058,57.101711 98.5573734,57.1540116 C98.4708069,57.2195376 98.3827376,57.2844624 98.2940671,57.3493873 C98.2237318,57.4010867 98.1527954,57.4527861 98.0812578,57.5038844 C97.9907838,57.5679075 97.8994081,57.6313295 97.8074312,57.6944509 C97.7340902,57.7452486 97.6610497,57.7957457 97.5862058,57.8456416 C97.492726,57.9081618 97.3971422,57.9697803 97.301859,58.0313988 C97.2255121,58.0803931 97.1497665,58.1296879 97.0722173,58.1783815 C96.9754312,58.2393988 96.8759399,58.2992139 96.7764486,58.3593295 C96.6973965,58.4068208 96.6198474,58.4549133 96.5395931,58.5018035 C96.437096,58.5616185 96.3327954,58.6202312 96.2287954,58.6791445 C96.1482405,58.7245318 96.0688879,58.7702197 95.9871306,58.8150058 C95.8789225,58.8745202 95.7680092,58.9322312 95.657096,58.9905434 C95.5759399,59.0329249 95.4962867,59.0762081 95.4139283,59.118289 C95.2970035,59.178104 95.1773734,59.2361156 95.0583445,59.2944277 C94.9789919,59.3332023 94.9017434,59.372578 94.821489,59.4107514 C94.6874312,59.474474 94.5500671,59.5363931 94.4130035,59.5983121 C94.3444717,59.6292717 94.2777434,59.6611329 94.2086104,59.6917919 C94.0006104,59.7834682 93.789304,59.873341 93.5746913,59.9611098 C86.8793156,62.6945665 77.7119861,64.2879306 68.0802636,64.2879306 C61.4813734,64.2879306 54.6642636,63.5391908 48.2778821,61.8968324 C47.1948994,63.6609249 46.2652116,65.5227052 45.4993387,67.4599306 C42.6745064,70.5763237 40.5217665,73.4976416 39.1210728,75.8995607 C39.2548301,77.1241156 39.3456046,79.6540809 39.3456046,80.085711 C39.3456046,99.3939422 54.174622,115.97563 72.8266913,118.832023 L73.0061364,124.520162 C73.0061364,127.60289 74.6463908,130.101896 77.7291191,130.101896 C80.8115468,130.101896 82.4518012,127.60289 82.4518012,124.520162 L82.6249341,119.042428 C102.02394,116.918844 117.710506,99.9443006 117.710506,80.085711" id="Fill-8" fill="#BDBDBD"></path>
                    <path d="M65.2553711,77.2461503 C67.0618451,77.2461503 68.5262613,78.7105665 68.5262613,80.5170405 C68.5262613,82.3235145 67.0618451,83.7879306 65.2553711,83.7879306 C63.4488971,83.7879306 61.9844809,82.3235145 61.9844809,80.5170405 C61.9844809,78.7105665 63.4488971,77.2461503 65.2553711,77.2461503" id="Fill-10" fill="#757575"></path>
                    <path d="M92.770585,77.2461503 C94.577059,77.2461503 96.0414751,78.7105665 96.0414751,80.5170405 C96.0414751,82.3235145 94.577059,83.7879306 92.770585,83.7879306 C90.964111,83.7879306 89.4996948,82.3235145 89.4996948,80.5170405 C89.4996948,78.7105665 90.964111,77.2461503 92.770585,77.2461503" id="Fill-12" fill="#757575"></path>
                    <path d="M94.9763468,96.7647861 C94.1765087,96.3006936 63.3867977,96.3000925 62.5881618,96.7647861 C61.7877225,97.2294798 61.5163006,98.2535491 61.9803931,99.0530867 C65.2756301,104.731306 71.7149133,108.25859 78.7827052,108.25859 C85.8501965,108.25859 92.288578,104.731006 95.583815,99.0533873 C96.0479075,98.2532486 95.7758844,97.2279769 94.9763468,96.7647861" id="Fill-14" fill="#757575"></path>
                    <path d="M44.7196393,69.6391214 C45.5940208,66.9110751 46.7942289,64.3131792 48.2775815,61.8968324 C54.6636624,63.5391908 61.4810728,64.2879306 68.079963,64.2879306 C77.711385,64.2879306 86.879015,62.6945665 93.5746913,59.9611098 C93.789304,59.873341 94.0006104,59.7834682 94.2086104,59.6917919 C94.2774428,59.6611329 94.3444717,59.6292717 94.4130035,59.5983121 C94.5500671,59.5363931 94.6874312,59.474474 94.821489,59.4107514 C94.9017434,59.372578 94.9789919,59.3332023 95.0583445,59.2944277 C95.1773734,59.2361156 95.2970035,59.178104 95.4139283,59.118289 C95.4959861,59.0762081 95.5759399,59.0329249 95.6567954,58.9905434 C95.7674081,58.9322312 95.8783214,58.8745202 95.9865295,58.8150058 C96.0679861,58.7702197 96.1476393,58.7245318 96.2278936,58.6791445 C96.3321942,58.6202312 96.4364948,58.5616185 96.5386913,58.5018035 C96.6192462,58.4549133 96.6967954,58.4068208 96.7758474,58.3593295 C96.8753387,58.2992139 96.9748301,58.2393988 97.0719168,58.1783815 C97.1494659,58.1296879 97.2252116,58.0803931 97.3015584,58.0313988 C97.3968416,57.9697803 97.492726,57.9081618 97.5859052,57.8456416 C97.6607491,57.7957457 97.7340902,57.7452486 97.8071306,57.6947514 C97.8991075,57.6316301 97.9907838,57.5682081 98.0809572,57.504185 C98.1527954,57.4530867 98.2234312,57.4013873 98.2937665,57.3496879 C98.382437,57.284763 98.4705064,57.2198382 98.5570728,57.1543121 C98.6259052,57.1020116 98.6938358,57.0494104 98.7614659,56.9968092 C98.8474312,56.9300809 98.9321942,56.8633526 99.0163561,56.7960231 C99.0815815,56.7431214 99.1465064,56.6902197 99.2108301,56.6370173 C99.293489,56.5684855 99.3755468,56.4996532 99.4567029,56.4305202 C99.5192231,56.3773179 99.5811422,56.3235145 99.6424601,56.2700116 C99.7227145,56.1996763 99.8017665,56.1290405 99.8805179,56.0578035 C99.9394312,56.004 99.9989457,55.9501965 100.056957,55.8960925 C100.134506,55.8236532 100.211454,55.7512139 100.287501,55.6781734 C100.343408,55.6243699 100.399316,55.5708671 100.454021,55.516763 C100.529766,55.4422197 100.60431,55.3670751 100.678252,55.2919306 C100.730553,55.2387283 100.782853,55.185526 100.834252,55.1320231 C100.908495,55.0547746 100.980934,54.9769249 101.053373,54.8990751 C101.101766,54.8467746 101.15016,54.7947746 101.197951,54.7421734 C101.270691,54.6619191 101.341928,54.5810636 101.412865,54.5002081 C101.45735,54.4494104 101.502437,54.3986127 101.546321,54.3475145 C101.617859,54.2636532 101.687894,54.1794913 101.757628,54.0953295 C101.783177,54.0643699 101.809928,54.0340116 101.835177,54.003052 C103.231662,58.2880925 106.96424,61.0245549 109.644495,63.3904046 C109.649605,63.3988208 109.653512,63.4075376 109.658021,63.4162543 C114.037743,67.1365087 115.843616,73.2511676 117.672934,78.3101965 C120.455986,64.4487399 129.049813,58.6833526 122.140726,44.219237 C119.908333,39.5458497 117.992449,38.1433526 113.399015,36.8664971 C113.848379,36.7760231 114.362969,36.7363468 114.901905,36.7363468 C116.234067,36.7363468 117.714113,36.9789133 118.72646,37.2978266 C118.767639,37.3113526 118.807917,37.3242775 118.849096,37.3387052 C119.082645,37.4168555 119.291847,37.4989133 119.459269,37.5827746 C118.101258,35.6497572 115.668079,34.8336879 113.220472,34.8336879 C110.672472,34.8336879 108.110044,35.7179884 106.729188,37.1469364 C107.243177,27.1373873 100.096634,19.0698728 83.9739283,19.0695723 C81.3171191,19.0695723 78.4177434,19.2883931 75.2670844,19.7539884 C63.7396162,21.4573642 50.3915468,30.8970173 38.7850266,30.8970173 C34.5053965,30.8970173 30.4629225,29.6138497 26.8355468,26.1854566 C26.7576971,26.1109133 26.6792462,26.0363699 26.6016971,25.9603237 C26.572541,25.9323699 26.5442867,25.9044162 26.5154312,25.8761618 C26.3822751,25.7448092 26.2497202,25.6116532 26.1174659,25.474289 C26.1246798,25.5449249 26.1355006,25.6188671 26.1481249,25.6949133 C26.2918012,26.6209942 26.7300439,27.6126012 27.361859,28.594289 C28.1409572,29.8374798 29.3156162,31.2174335 30.9745064,32.5360694 C31.8708301,33.2682775 32.8029225,33.8973873 33.6872231,34.3593757 C27.1833156,34.0852486 24.2559861,31.4690173 20.9646566,25.1631908 C19.2140902,31.044 17.8819283,35.8400231 21.2850728,42.576578 C21.285674,42.5777803 21.2859746,42.5789827 21.2868763,42.5798844 C21.4044023,42.8125318 21.5231306,43.042474 21.6430613,43.2694104 C21.6472694,43.2772254 21.6511769,43.2847399 21.655385,43.2922543 C21.8919399,43.7395145 22.1324023,44.1747514 22.3761711,44.596763 C22.383385,44.6093873 22.3908994,44.6223121 22.3984139,44.635237 C22.5141364,44.8351214 22.6307607,45.0316994 22.7479861,45.2255723 C22.763015,45.2508208 22.7783445,45.2757688 22.7933734,45.3007168 C22.9096971,45.4918844 23.0263214,45.6800462 23.1438474,45.8646012 C23.1537665,45.8799306 23.163385,45.8952601 23.173304,45.9105896 C23.288726,46.0915376 23.4047491,46.2694798 23.5213734,46.4435145 C23.529489,46.4561387 23.5385064,46.4693642 23.546622,46.4819884 C23.6620439,46.6548208 23.7786682,46.8234451 23.8949919,46.9893642 C23.9154312,47.0185202 23.9358705,47.0476763 23.9563098,47.0765318 C24.0699283,47.2370405 24.1838474,47.3942428 24.2977665,47.5478382 C24.3167029,47.5736879 24.3359399,47.5989364 24.3551769,47.6244855 C24.4739052,47.7828902 24.5926335,47.9385896 24.7113618,48.088578 C27.2996393,51.3642775 30.5867607,54.082104 34.3394775,56.2988671 C36.7203561,57.3550983 38.6542751,71.6277457 39.121674,75.9004624 C40.5358936,73.4726936 42.800148,73.3620809 44.7196393,69.6391214" id="Fill-16" fill="#757575"></path>
                </g>
            </g>
        </g>
    </g>
</svg>